<svg xmlns="http://www.w3.org/2000/svg" viewBox="0 0 64 64" role="img" aria-label="CHMS favicon">
  <defs>
    <linearGradient id="bg" x1="0" y1="0" x2="1" y2="1">
      <stop offset="0%" stop-color="#3B82F6" />
      <stop offset="100%" stop-color="#06B6D4" />
    </linearGradient>
  </defs>

  <rect x="5" y="5" width="54" height="54" rx="14" fill="url(#bg)" />

  <path d="M18 24c2 2 4 2 6 0s4-2 6 0 4 2 6 0 4-2 6 0" fill="none" stroke="#FFFFFF" stroke-width="3" stroke-linecap="round" stroke-linejoin="round" />
  <path d="M18 32c2 2 4 2 6 0s4-2 6 0 4 2 6 0 4-2 6 0" fill="none" stroke="#FFFFFF" stroke-width="3" stroke-linecap="round" stroke-linejoin="round" />
  <path d="M18 40c2 2 4 2 6 0s4-2 6 0 4 2 6 0 4-2 6 0" fill="none" stroke="#FFFFFF" stroke-width="3" stroke-linecap="round" stroke-linejoin="round" />
</svg>
